<svg xmlns="http://www.w3.org/2000/svg" xmlns:xlink="http://www.w3.org/1999/xlink" width="32" height="32" fill="#000" version="1.1" viewBox="0 0 32 32"><g><path d="M 1.984,8.32 L 9.664,8.32 L 9.664,24.96 L 1.984,24.96 Z M 3.264,23.68 L 8.384,23.68 L 8.384,9.6 L 3.264,9.6 Z M 3.264,23.68M 31.394,27.52 L 31.394,26.24 L 0.672,26.24 L 0.672,27.52 L 31.394,27.52 Z M 31.394,27.52M 12.256,4.512 L 19.936,4.512 L 19.936,24.928 L 12.256,24.928 Z M 13.536,23.648 L 18.656,23.648 L 18.656,5.792 L 13.536,5.792 Z M 13.536,23.648M 22.464,12.16 L 30.144,12.16 L 30.144,24.96 L 22.464,24.96 Z M 23.744,13.44 L 23.744,23.68 L 28.864,23.68 L 28.864,13.44 Z M 23.744,13.44"/></g></svg>